<svg width="96pt" height="96pt" viewBox="0 0 96 96" xmlns="http://www.w3.org/2000/svg"><path fill="#eeac54" d="M28.42 9.99C40.35 3.37 55.9 3.33 67.8 10.05C67.35 10.47 66.45 11.32 66 11.74C54.94 5.43 41.32 6.6 29.85 11.08C29.49 10.81 28.77 10.26 28.42 9.99Z"/><path fill="#fdeb78" d="M29.85 11.08C41.32 6.6 54.94 5.43 66 11.74C66.17 13.98 66.36 16.22 66.54 18.46C67.74 16.08 68.94 13.69 70.56 11.55C75.23 14.56 79.62 18.15 82.72 22.83C73.82 22 63.5 19.38 56.08 26.07C52.33 28.2 52.48 35.12 57.24 35.7C61.9 35.03 66.12 32.11 71.01 32.55C76.79 31.89 81.66 35.29 86.92 36.9C91.15 46.57 89.43 58.21 84.02 67.07C81.14 68.3 78.21 69.43 75.15 70.11C75.01 69.6 74.73 68.57 74.59 68.06C77.39 64.47 79.63 60.38 80.1 55.77C82.28 53.31 84.42 50.8 86.26 48.06C83.42 49.48 80.65 51 77.81 52.39C78.96 49.82 80.39 47.36 82.38 45.34C84.07 44.21 86.65 43.55 86.85 41.16C85.4 38.74 82.73 37.51 80.27 36.38C79.78 36.29 78.8 36.1 78.31 36.01C76.07 39.46 74.52 43.28 72.93 47.05C73.49 43.02 74.16 38.99 74.83 34.97C74.21 35.07 72.96 35.26 72.33 35.35C69.64 41.15 70.51 50.13 63.41 52.66C62.16 49.61 61.11 46.16 57.96 44.53C58.13 49.83 59.88 54.93 62.53 59.49C60.29 61.65 56.92 61.08 54.09 61.18C54.5 55.46 54.51 49.72 53.97 44.01C52.77 44.03 51.58 44.08 50.38 44.14C50.25 48.26 50.01 52.37 50.02 56.5C48.93 55.35 47.85 54.2 46.78 53.05C46.73 50.14 46.72 47.22 47.2 44.35C50.71 36.57 48.49 26.72 41.56 21.61C37.71 18.84 30.89 18.83 30.34 12.98C30.21 12.5 29.97 11.55 29.85 11.08Z"/><path fill="#a43f10" d="M17.35 14.84C15.47 8.74 24.69 5.94 28.42 9.99C28.77 10.26 29.49 10.81 29.85 11.08C29.97 11.55 30.21 12.5 30.34 12.98C30.21 14.53 30.03 16.09 29.78 17.63C29.46 17.7 28.81 17.84 28.49 17.91C27.74 15.71 26.92 13.5 25.57 11.58C22.22 9.96 19.53 12.69 17.35 14.84Z"/><path fill="#a43f10" d="M67.8 10.05C71.93 5.72 79.89 8.98 79.76 15C76.68 13.67 74.35 9.63 70.56 11.55C68.94 13.69 67.74 16.08 66.54 18.46C66.36 16.22 66.17 13.98 66 11.74C66.45 11.32 67.35 10.47 67.8 10.05Z"/><path fill="#ffcf74" d="M25.57 11.58C26.92 13.5 27.74 15.71 28.49 17.91C25.43 18.41 22.35 19 19.59 20.47C16.78 21.79 13.86 22.88 10.95 23.97C15.48 19.47 20.21 15.07 25.57 11.58Z"/><path fill="#eeac54" d="M30.34 12.98C30.89 18.83 37.71 18.84 41.56 21.61C48.49 26.72 50.71 36.57 47.2 44.35C46.4 44.18 44.8 43.82 44 43.64C46.21 39.57 45.98 34.64 43.87 30.58C38.63 22.62 28.46 20.67 19.59 20.47C22.35 19 25.43 18.41 28.49 17.91C28.81 17.84 29.46 17.7 29.78 17.63C30.03 16.09 30.21 14.53 30.34 12.98Z"/><path fill="#1f1f1f" d="M10.95 23.97C13.86 22.88 16.78 21.79 19.59 20.47C28.46 20.67 38.63 22.62 43.87 30.58C43.23 33.59 41.69 39.1 37.53 36.57C28.92 31.23 18.1 32.48 9.33 36.73C7.56 34.54 6.16 32 6.75 29.07C7.79 27.14 8.98 25.06 10.95 23.97M10.14 26.34C13.53 26.57 15.58 28.9 16.4 32.05C21.23 32.29 26.1 31.17 30.89 32.1C34.56 32.79 37.43 35.9 41.32 35.65C41.86 32.88 41.98 29.42 39.35 27.64C31.13 21.56 18.77 20.58 10.14 26.34Z"/><path fill="#1f1f1f" d="M56.08 26.07C63.5 19.38 73.82 22 82.72 22.83C86.95 26.42 91.32 30.58 89.69 36.75C88.77 36.81 87.85 36.87 86.92 36.9C81.66 35.29 76.79 31.89 71.01 32.55C66.12 32.11 61.9 35.03 57.24 35.7C52.48 35.12 52.33 28.2 56.08 26.07M57.85 25.92C60.58 27.04 62.6 29.12 63.35 32.01C68.44 31.34 73.71 30.85 78.71 32.33C81.99 33.24 84.73 35.89 88.32 35.64C89.04 32.66 88.8 28.94 85.84 27.25C77.8 21.89 66.22 20.61 57.85 25.92Z"/><path fill="#ffffff" d="M10.14 26.34C18.77 20.58 31.13 21.56 39.35 27.64C41.98 29.42 41.86 32.88 41.32 35.65C37.43 35.9 34.56 32.79 30.89 32.1C26.1 31.17 21.23 32.29 16.4 32.05C15.58 28.9 13.53 26.57 10.14 26.34Z"/><path fill="#ffffff" d="M57.85 25.92C66.22 20.61 77.8 21.89 85.84 27.25C88.8 28.94 89.04 32.66 88.32 35.64C84.73 35.89 81.99 33.24 78.71 32.33C73.71 30.85 68.44 31.34 63.35 32.01C62.6 29.12 60.58 27.04 57.85 25.92Z"/><path fill="#eeac54" d="M7.82 63.33C3.48 52.39 5.34 40.39 6.75 29.07C6.16 32 7.56 34.54 9.33 36.73C8.6 53.28 32.97 59.76 41.97 46.81C42.08 47.6 42.29 49.16 42.39 49.94C36.88 57.73 24.72 56.02 16.76 53.15C16.43 52.96 15.77 52.59 15.44 52.4C12.22 50.82 9.95 48 7.85 45.2C5.96 63.93 19.56 82.57 37.75 87.05C55.51 92.71 74.94 82.6 84.02 67.07C89.43 58.21 91.15 46.57 86.92 36.9C87.85 36.87 88.77 36.81 89.69 36.75C92.02 46.97 91.44 58.16 86.47 67.54C79.43 81.75 63.95 91.48 48 90.98C30.51 91.49 13.83 79.63 7.82 63.33Z"/><path fill="#743399" d="M43.87 30.58C45.98 34.64 46.21 39.57 44 43.64C43.36 44.72 42.69 45.78 41.97 46.81C32.97 59.76 8.6 53.28 9.33 36.73C18.1 32.48 28.92 31.23 37.53 36.57C41.69 39.1 43.23 33.59 43.87 30.58Z"/><path fill="#db4100" d="M72.33 35.35C72.96 35.26 74.21 35.07 74.83 34.97C74.16 38.99 73.49 43.02 72.93 47.05C74.52 43.28 76.07 39.46 78.31 36.01C78.8 36.1 79.78 36.29 80.27 36.38C79.22 40.41 77.72 44.3 76.16 48.16C78.37 44.92 80.54 41.65 83.11 38.68C82.98 40.91 82.76 43.14 82.38 45.34C80.39 47.36 78.96 49.82 77.81 52.39C80.65 51 83.42 49.48 86.26 48.06C84.42 50.8 82.28 53.31 80.1 55.77C79.43 56.53 78.77 57.29 78.13 58.07C75.95 60.28 74 63.2 70.86 64.06C67.48 64.22 64.81 61.67 62.53 59.49C59.88 54.93 58.13 49.83 57.96 44.53C61.11 46.16 62.16 49.61 63.41 52.66C70.51 50.13 69.64 41.15 72.33 35.35Z"/><path fill="#eeac54" d="M80.27 36.38C82.73 37.51 85.4 38.74 86.85 41.16C86.65 43.55 84.07 44.21 82.38 45.34C82.76 43.14 82.98 40.91 83.11 38.68C80.54 41.65 78.37 44.92 76.16 48.16C77.72 44.3 79.22 40.41 80.27 36.38Z"/><path fill="#db4100" d="M41.97 46.81C42.69 45.78 43.36 44.72 44 43.64C44.8 43.82 46.4 44.18 47.2 44.35C46.72 47.22 46.73 50.14 46.78 53.05C46.45 59.44 48.66 66.45 45.44 72.36C44.78 71.98 43.46 71.22 42.8 70.84C42.37 63.88 42.97 56.89 42.39 49.94C42.29 49.16 42.08 47.6 41.97 46.81Z"/><path fill="#db4100" d="M50.38 44.14C51.58 44.08 52.77 44.03 53.97 44.01C54.51 49.72 54.5 55.46 54.09 61.18C52.81 61.13 51.53 61.07 50.24 61C50.17 59.5 50.06 58 50.02 56.5C50.01 52.37 50.25 48.26 50.38 44.14Z"/><path fill="#ffcf74" d="M37.75 87.05C19.56 82.57 5.96 63.93 7.85 45.2C9.95 48 12.22 50.82 15.44 52.4C15.79 61.9 22.09 70.49 30.62 74.4C44.68 81.49 63.26 79.22 74.59 68.06C74.73 68.57 75.01 69.6 75.15 70.11C78.21 69.43 81.14 68.3 84.02 67.07C74.94 82.6 55.51 92.71 37.75 87.05Z"/><path fill="#ffcf74" d="M42.39 49.94C42.97 56.89 42.37 63.88 42.8 70.84C43.46 71.22 44.78 71.98 45.44 72.36C48.66 66.45 46.45 59.44 46.78 53.05C47.85 54.2 48.93 55.35 50.02 56.5C50.06 58 50.17 59.5 50.24 61C51.53 61.07 52.81 61.13 54.09 61.18C56.92 61.08 60.29 61.65 62.53 59.49C64.81 61.67 67.48 64.22 70.86 64.06C74 63.2 75.95 60.28 78.13 58.07C66.68 82.45 23.01 80.26 16.76 53.15C24.72 56.02 36.88 57.73 42.39 49.94Z"/><path fill="#7a130c" d="M15.44 52.4C15.77 52.59 16.43 52.96 16.76 53.15C23.01 80.26 66.68 82.45 78.13 58.07C78.77 57.29 79.43 56.53 80.1 55.77C79.63 60.38 77.39 64.47 74.59 68.06C63.26 79.22 44.68 81.49 30.62 74.4C22.09 70.49 15.79 61.9 15.44 52.4Z"/></svg>